<svg width="57" height="57" viewBox="0 0 57 57" fill="none" xmlns="http://www.w3.org/2000/svg">
<path d="M41.777 30.517C41.715 24.285 46.859 21.296 47.089 21.145C44.198 16.918 39.694 16.338 38.091 16.272C34.261 15.883 30.614 18.528 28.671 18.528C26.732 18.528 23.73 16.329 20.554 16.385C16.376 16.447 12.525 18.815 10.375 22.555C6.036 30.082 9.265 41.237 13.493 47.346C15.56 50.332 18.025 53.692 21.259 53.569C24.376 53.446 25.552 51.553 29.32 51.553C33.088 51.553 34.146 53.569 37.443 53.506C40.795 53.445 42.92 50.463 44.97 47.465C47.343 43.996 48.32 40.637 48.378 40.467C48.305 40.433 41.844 37.958 41.777 30.517Z" fill="white"/>
<path d="M35.582 12.229C37.297 10.147 38.459 7.25399 38.143 4.37399C35.668 4.47399 32.672 6.01899 30.895 8.09899C29.303 9.94499 27.911 12.884 28.284 15.712C31.045 15.926 33.861 14.307 35.582 12.229Z" fill="white"/>
</svg>
