<svg width="57" height="57" viewBox="0 0 57 57" fill="none" xmlns="http://www.w3.org/2000/svg">
<path d="M39.332 18.0622L12.6744 3.79049C11.2891 3.04889 9.78701 3.01099 8.48691 3.48499L31.198 26.1961L39.332 18.0622Z" fill="white"/>
<path d="M49.2731 23.3844L41.5944 19.2735L32.9349 27.9329L41.5944 36.5924L49.273 32.4814C52.9054 30.5368 52.9054 25.329 49.2731 23.3844Z" fill="white"/>
<path d="M6.4077 4.87939C5.5932 5.77459 5.0798 6.96969 5.0798 8.33899V47.5268C5.0798 48.8961 5.5932 50.0913 6.4076 50.9865L29.4612 27.9329L6.4077 4.87939Z" fill="white"/>
<path d="M8.48691 52.3809C9.78691 52.8548 11.2891 52.8171 12.6744 52.0754L39.332 37.8037L31.1981 29.6698L8.48691 52.3809Z" fill="white"/>
</svg>
